<?xml version="1.0" encoding="UTF-8" standalone="no"?>
<!-- Created with Inkscape (http://www.inkscape.org/) -->

<svg
   width="600"
   height="80"
   viewBox="0 0 158.75 21.166667"
   version="1.1"
   id="svg1"
   inkscape:version="1.4.2 (f4327f4, 2025-05-13)"
   sodipodi:docname="drawing.svg"
   xmlns:inkscape="http://www.inkscape.org/namespaces/inkscape"
   xmlns:sodipodi="http://sodipodi.sourceforge.net/DTD/sodipodi-0.dtd"
   xmlns="http://www.w3.org/2000/svg"
   xmlns:svg="http://www.w3.org/2000/svg">
  <sodipodi:namedview
     id="namedview1"
     pagecolor="#000000"
     bordercolor="#000000"
     borderopacity="0.25"
     inkscape:showpageshadow="2"
     inkscape:pageopacity="0.0"
     inkscape:pagecheckerboard="0"
     inkscape:deskcolor="#d1d1d1"
     inkscape:document-units="mm"
     inkscape:zoom="2.8284271"
     inkscape:cx="360.09413"
     inkscape:cy="11.490485"
     inkscape:window-width="3840"
     inkscape:window-height="2054"
     inkscape:window-x="-11"
     inkscape:window-y="-11"
     inkscape:window-maximized="1"
     inkscape:current-layer="layer1" />
  <defs
     id="defs1">
    <rect
       x="133"
       y="349"
       width="2"
       height="15"
       id="rect3" />
    <rect
       x="40"
       y="492"
       width="325"
       height="121"
       id="rect2" />
  </defs>
  <g
     inkscape:label="Layer 1"
     inkscape:groupmode="layer"
     id="layer1">
    <path
       style="font-weight:bold;font-size:16.9333px;font-family:Inter;-inkscape-font-specification:'Inter Bold';fill:#ffffff;stroke-width:0.264583"
       d="M 14.093326,16.743153 V 4.4235154 h 2.546609 v 4.9443913 h 5.233779 V 4.4235154 h 2.538342 V 16.743153 h -2.538342 v -5.192438 h -5.233779 v 5.192438 z m 11.319184,0 4.324275,-12.3196376 h 3.274212 L 37.335273,16.743153 H 34.515812 L 32.58105,10.748698 Q 32.225517,9.5663438 31.845179,8.3178437 31.47311,7.0610753 31.034894,5.4653102 h 0.702798 q -0.454751,1.5957651 -0.835089,2.8525335 -0.37207,1.2485001 -0.744139,2.4308543 l -2.000908,5.994455 z m 2.745046,-2.68717 v -2.03398 h 6.440938 v 2.03398 z m 12.079859,2.68717 V 12.137758 L 35.673361,4.4235154 h 2.91868 l 2.091857,3.6958912 q 0.289388,0.5126292 0.553971,1.0169902 0.272851,0.5043609 0.537434,1.0087222 h -0.553971 q 0.256315,-0.5043613 0.512629,-1.0087222 0.264583,-0.504361 0.545703,-1.0169902 l 2.025712,-3.6958912 h 2.902142 l -4.489639,7.7142426 v 4.605395 z m 12.311368,0 h -3.183262 v -2.141468 h 3.05097 q 1.240232,0 2.050517,-0.463019 0.810285,-0.471289 1.207159,-1.364256 0.396874,-0.901235 0.396874,-2.199344 0,-1.2981096 -0.396874,-2.1910766 -0.396874,-0.892967 -1.207159,-1.3559869 -0.802017,-0.46302 -2.025712,-0.46302 H 49.307643 V 4.4235154 h 3.290749 q 1.85208,0 3.208066,0.7524074 1.355987,0.7441391 2.091858,2.1249307 0.735871,1.3807915 0.735871,3.2742125 0,1.893421 -0.735871,3.28248 -0.735871,1.380792 -2.100126,2.133199 -1.355987,0.752408 -3.249407,0.752408 z M 50.746312,4.4235154 V 16.743153 H 48.199703 V 4.4235154 Z M 60.072856,16.743153 V 4.4235154 h 8.83872 v 2.1828082 h -6.29211 v 2.8525335 h 5.820822 v 2.1249309 h -5.820822 v 2.976556 h 6.29211 v 2.182809 z m 10.293926,0 V 4.4235154 h 2.678901 l 3.960474,6.3003786 q 0.181901,0.289387 0.46302,0.777212 0.28112,0.487824 0.587043,1.050063 0.314193,0.55397 0.595312,1.074867 l -0.289388,0.653189 q -0.0248,-0.562238 -0.04961,-1.289841 -0.02481,-0.735871 -0.03307,-1.413864 -0.0083,-0.677994 -0.0083,-1.058332 V 4.4235154 h 2.538341 V 16.743153 H 78.122366 L 74.533962,11.038086 Q 74.31072,10.682553 73.971723,10.112046 73.632727,9.533271 73.211048,8.8056682 72.797637,8.0697973 72.351154,7.2512442 l 0.446483,-0.2893874 q 0.04961,0.9095034 0.07441,1.71152 0.02481,0.7937485 0.03307,1.4055962 0.0083,0.60358 0.0083,0.950845 v 5.713335 z m 15.90804,0 V 4.4235154 h 3.712427 l 2.033981,5.7381396 q 0.124023,0.388606 0.297655,0.959113 0.173633,0.562238 0.355533,1.182354 0.181901,0.611848 0.330729,1.174087 0.157096,0.562238 0.256314,0.934308 h -0.636652 q 0.09922,-0.37207 0.248046,-0.934308 0.157097,-0.562239 0.338997,-1.174087 0.181901,-0.620116 0.347265,-1.182354 0.173633,-0.570507 0.289388,-0.959113 L 95.85768,4.4235154 h 3.712428 V 16.743153 h -2.497 v -5.853895 q 0,-0.413411 0.01654,-0.9839174 0.01654,-0.5705067 0.03307,-1.2154273 0.01654,-0.6531889 0.03307,-1.3146459 0.01654,-0.6697252 0.0248,-1.2650366 h 0.305924 Q 97.296349,6.7634196 97.089644,7.4496813 96.891207,8.135943 96.701038,8.7808636 96.510869,9.4257842 96.337237,9.9714863 96.171872,10.50892 96.047849,10.889258 L 93.96426,16.743153 H 91.897206 L 89.788812,10.889258 Q 89.664789,10.50892 89.491156,9.9714863 89.317524,9.4257842 89.119087,8.7808636 88.928918,8.135943 88.713944,7.4496813 88.507239,6.7634196 88.308802,6.1102308 h 0.363801 q 0.0083,0.5953114 0.02481,1.2650366 0.01654,0.661457 0.03307,1.3146459 0.01654,0.6449206 0.0248,1.2154273 0.01654,0.5705064 0.01654,0.9839174 v 5.853895 z M 103.96053,4.4235154 V 16.743153 h -2.54661 V 4.4235154 Z m 1.83555,12.3196376 V 4.4235154 h 2.54661 V 14.560344 h 5.59758 v 2.182809 z m 9.42576,0 V 4.4235154 h 2.54661 V 14.560344 h 5.59758 v 2.182809 z m 9.42576,0 V 4.4235154 h 8.83872 v 2.1828082 h -6.29211 v 2.8525335 h 5.82082 v 2.1249309 h -5.82082 v 2.976556 h 6.29211 v 2.182809 z m 10.29392,0 V 4.4235154 h 4.92786 q 1.38906,0 2.39778,0.4960928 1.01699,0.4878245 1.56269,1.397328 0.55397,0.9012352 0.55397,2.1497353 0,1.2154273 -0.57877,2.1083945 -0.57878,0.892967 -1.62884,1.380791 -1.04179,0.479557 -2.45566,0.479557 h -3.24941 v -2.042249 h 3.24941 q 0.66973,0 1.15755,-0.239778 0.48783,-0.2397782 0.75241,-0.6697253 0.26458,-0.4382153 0.26458,-1.0169902 0,-0.5953113 -0.26458,-1.0169902 -0.26458,-0.4299471 -0.75241,-0.6697252 -0.48782,-0.2397782 -1.16582,-0.2397782 h -2.22415 V 16.743153 Z m 6.98664,0 -2.81946,-5.564508 h 2.67064 l 2.87733,5.564508 z"
       id="text4"
       aria-label="HAYDEN MILLER" />
    <text
       xml:space="preserve"
       transform="scale(0.26458333)"
       id="text2"
       style="text-align:start;writing-mode:lr-tb;direction:ltr;white-space:pre;shape-inside:url(#rect2);display:inline;fill:#000000" />
    <text
       xml:space="preserve"
       transform="scale(0.26458333)"
       id="text3"
       style="text-align:start;writing-mode:lr-tb;direction:ltr;white-space:pre;shape-inside:url(#rect3);display:inline;fill:#000000" />
  </g>
</svg>
